# Wavefront OBJ file
# Exported by Maverick Model 3D 1.3.12
# Sat Feb 06 08:11:24 2021

mtllib snack.mtl

# 160 Vertices
v 1.428043 1.492373 0.0
v -1.428043 1.492373 -0.0
v 1.361736 0.100519 0.0
v -1.428043 1.492373 -0.0
v 1.428043 1.492373 0.0
v -1.361736 0.100519 -0.0
v -1.361736 0.100519 -0.0
v 1.361736 0.100519 0.0
v 0.672437 0.315602 0.0
v -0.672437 0.315602 -0.0
v -0.672437 0.315602 -0.0
v -1.477147 1.248601 0.135235
v 1.492263 1.014659 0.0
v 1.492263 1.014659 0.0
v -0.672437 1.3341 -0.0
v -0.672437 1.3341 -0.0
v 0.672437 1.3341 0.0
v 0.672437 1.3341 0.0
v -1.452273 0.53433 -0.0
v -1.452273 0.53433 -0.0
v 0.672437 0.315602 0.0
v 0.896317 0.405768 -0.220145
v -0.896317 0.405768 0.220145
v 1.213257 1.523616 0.135236
v 1.452273 0.53433 0.0
v 1.452273 0.53433 0.0
v 0.896317 0.405768 0.220145
v -0.896317 0.405768 -0.220145
v -0.692517 1.288063 -0.119456
v -1.492263 1.01466 -0.0
v -1.492263 1.01466 -0.0
v 0.692517 1.14046 -0.198227
v 1.477147 1.248601 -0.135235
v -0.692517 1.14046 0.198227
v 1.299578 0.766313 -0.135235
v -1.299578 0.766313 0.135235
v -1.322682 0.160706 0.135235
v 1.322682 0.160706 -0.135235
v 1.299578 0.766313 0.135236
v -1.299578 0.766313 -0.135236
v 1.477147 1.248601 0.135236
v -1.477147 1.248601 -0.135236
v 0.878773 0.074373 0.0
v 0.878773 0.074373 0.0
v 0.940694 1.547785 0.0
v 0.940694 1.547785 0.0
v -0.878773 0.074373 -0.0
v -0.878773 0.074373 -0.0
v 0.0 1.354704 -0.144494
v -1.322682 0.160706 -0.135236
v 1.322682 0.160706 0.135236
v -0.940694 1.547785 -0.0
v -0.940694 1.547785 -0.0
v 0.692517 1.14046 0.198227
v -1.213257 1.523616 -0.135236
v -1.213257 1.523616 0.135235
v 1.213257 1.523616 -0.135235
v -0.0 0.294999 -0.144494
v -0.0 0.294999 0.144494
v 0.0 1.40736 0.0
v 0.0 1.40736 0.0
v -0.692517 1.14046 -0.198227
v 1.338632 0.766313 0.0
v 1.338632 0.766313 0.0
v -1.338632 0.766313 -0.0
v -1.338632 0.766313 -0.0
v -1.14695 0.0 -0.0
v -1.14695 0.0 -0.0
v 1.146951 0.0 0.0
v 1.146951 0.0 0.0
v -0.692517 0.361634 -0.119456
v 0.692517 0.361634 0.119456
v 0.692517 0.361634 -0.119456
v -0.692517 0.361634 0.119456
v 0.692517 1.288063 -0.119456
v -1.213257 1.592892 -0.0
v -1.213257 1.592892 -0.0
v 1.213257 1.592892 0.0
v 1.213257 1.592892 0.0
v 0.878773 0.141775 0.135236
v -0.878773 0.141775 0.135235
v 0.940694 1.480389 0.135236
v -0.940694 1.480389 -0.135236
v -0.0 1.185865 0.239775
v -0.692517 1.288063 0.119456
v 0.692517 1.288063 0.119456
v 0.0 1.185865 -0.239775
v -1.516195 1.290545 -0.0
v -1.516195 1.290545 -0.0
v 1.516195 1.290545 0.0
v 1.516195 1.290545 0.0
v -0.940694 1.480389 0.135235
v 0.940694 1.480389 -0.135235
v -0.0 0.242337 -0.0
v -0.0 0.242337 -0.0
v -0.878773 0.141775 -0.135236
v 0.878773 0.141775 -0.135235
v -1.413225 0.555299 -0.135236
v 1.413225 0.555299 0.135236
v -1.413225 0.555299 0.135235
v 1.413225 0.555299 -0.135235
v -1.14695 0.069276 0.135235
v 1.146951 0.069275 -0.135235
v -1.14695 0.069276 -0.135236
v 1.146951 0.069275 0.135236
v -1.453215 0.993685 0.135235
v 1.453215 0.993685 -0.135235
v -1.453215 0.993685 -0.135236
v 1.453215 0.993685 0.135236
v -0.0 1.354704 0.144494
v -0.692517 0.509237 -0.198227
v 0.692517 0.509237 -0.198227
v 0.692517 0.509237 0.198227
v -0.692517 0.509237 0.198227
v -0.0 0.463832 -0.239775
v -0.0 0.463832 0.239775
v 1.449888 0.302347 0.0
v 1.449888 0.302347 0.0
v -1.449888 0.302347 -0.0
v -1.449888 0.302347 -0.0
v -1.388989 1.432186 -0.135236
v 1.388989 1.432186 0.135236
v -1.388989 1.432186 0.135235
v 1.388989 1.432186 -0.135235
v 0.918764 1.216397 -0.220145
v 0.918764 1.216397 0.220145
v -0.918764 1.216397 0.220145
v -0.918764 1.216397 -0.220145
v -1.410834 0.344285 0.135235
v 1.410834 0.344285 -0.135235
v -1.410834 0.344285 -0.135236
v 1.410834 0.344285 0.135236
v -1.107209 0.452274 0.206798
v 1.107209 0.452274 -0.206798
v -1.107209 0.452274 -0.206798
v 1.107209 0.452274 0.206798
v -1.142814 1.111346 0.206798
v 1.142814 1.111346 -0.206798
v -1.142814 1.111346 -0.206798
v 1.142814 1.111346 0.206798
v -0.336218 1.384609 -0.0
v -0.336218 1.384609 -0.0
v -0.336218 0.265088 -0.0
v -0.336218 0.265088 -0.0
v -1.180901 0.766313 -0.187886
v 1.180901 0.766313 0.187886
v -1.180901 0.766313 0.187886
v 1.180901 0.766313 -0.187886
v 0.336218 1.384609 0.0
v 0.336218 1.384609 0.0
v 0.336218 0.265088 0.0
v 0.336218 0.265088 0.0
v 0.346262 1.334009 0.135236
v 0.346262 0.315694 -0.135235
v -0.346262 0.315694 -0.135236
v -0.346262 0.315694 0.135235
v 0.346262 0.315694 0.135235
v 0.346262 1.334009 -0.135235
v -0.346262 1.334009 -0.135235
v -0.346262 1.334009 0.135235

# 756 Texture Coordinates
vt 0.703369 0.681396
vt 0.500854 0.705688
vt 0.703369 0.344421
vt 0.29834 0.344421
vt 0.500854 0.705688
vt 0.29834 0.681396
vt 0.500854 0.320129
vt 0.703369 0.344421
vt 0.500854 0.705688
vt 0.703369 0.344421
vt 0.500854 0.705688
vt 0.500854 0.320129
vt 0.166687 0.665894
vt 0.155518 0.481628
vt 0.177063 0.313965
vt 0.824646 0.313965
vt 0.835083 0.665894
vt 0.769531 0.721985
vt 0.166687 0.665894
vt 0.155518 0.481628
vt 0.177063 0.313965
vt 0.835083 0.665894
vt 0.824646 0.313965
vt 0.846191 0.481628
vt 0.399597 0.784729
vt 0.500854 0.705688
vt 0.500854 0.795837
vt 0.12085 0.481628
vt 0.075867 0.603027
vt 0.025513 0.615723
vt 0.087585 0.369019
vt 0.088257 0.256348
vt 0.177063 0.313965
vt 0.914185 0.369019
vt 0.824646 0.313965
vt 0.913452 0.256348
vt 0.824646 0.313965
vt 0.835083 0.665894
vt 0.769531 0.721985
vt 0.135864 0.978149
vt 0.146057 0.885986
vt 0.225769 0.862915
vt 0.602112 0.784729
vt 0.500854 0.705688
vt 0.703369 0.681396
vt 0.177063 0.313965
vt 0.232178 0.721985
vt 0.166687 0.665894
vt 0.087585 0.369019
vt 0.088257 0.256348
vt 0.177063 0.313965
vt 0.914185 0.369019
vt 0.824646 0.313965
vt 0.913452 0.256348
vt 0.243896 0.148193
vt 0.23877 0.289124
vt 0.165466 0.109497
vt 0.500854 0.230042
vt 0.500854 0.148926
vt 0.602112 0.163269
vt 0.243896 0.148193
vt 0.23877 0.289124
vt 0.165466 0.109497
vt 0.399658 0.163269
vt 0.500854 0.148926
vt 0.500854 0.230042
vt 0.779724 0.970703
vt 0.776001 0.862915
vt 0.865906 0.978149
vt 0.950806 0.880737
vt 0.907043 0.837158
vt 0.932861 0.739136
vt 0.12085 0.481628
vt 0.075867 0.603027
vt 0.025513 0.615723
vt 0.835083 0.665894
vt 0.824646 0.313965
vt 0.846191 0.481628
vt 0.757874 0.148193
vt 0.836304 0.109497
vt 0.763 0.289124
vt 0.602112 0.163269
vt 0.602112 0.241089
vt 0.500854 0.230042
vt 0.757874 0.148193
vt 0.836304 0.109497
vt 0.763 0.289124
vt 0.602112 0.163269
vt 0.602112 0.241089
vt 0.500854 0.230042
vt 0.602112 0.867981
vt 0.500854 0.882324
vt 0.500854 0.795837
vt 0.779724 0.970703
vt 0.776001 0.862915
vt 0.865906 0.978149
vt 0.769531 0.721985
vt 0.835083 0.665894
vt 0.855652 0.885986
vt 0.050964 0.880737
vt 0.017883 0.767578
vt 0.068909 0.739136
vt 0.232178 0.721985
vt 0.225769 0.862915
vt 0.146057 0.885986
vt 0.399658 0.867981
vt 0.399597 0.784729
vt 0.500854 0.795837
vt 0.135864 0.978149
vt 0.146057 0.885986
vt 0.225769 0.862915
vt 0.050964 0.880737
vt 0.017883 0.767578
vt 0.068909 0.739136
vt 0.232178 0.721985
vt 0.225769 0.862915
vt 0.146057 0.885986
vt 0.177063 0.313965
vt 0.232178 0.721985
vt 0.166687 0.665894
vt 0.12085 0.481628
vt 0.025513 0.615723
vt 0.069702 0.481628
vt 0.039001 0.227905
vt 0.088257 0.256348
vt 0.087585 0.369019
vt 0.12085 0.481628
vt 0.025513 0.615723
vt 0.069702 0.481628
vt 0.039001 0.227905
vt 0.088257 0.256348
vt 0.087585 0.369019
vt 0.243896 0.148193
vt 0.165466 0.109497
vt 0.155823 0.017334
vt 0.088257 0.256348
vt 0.039001 0.227905
vt 0.071838 0.114746
vt 0.243896 0.148193
vt 0.165466 0.109497
vt 0.155823 0.017334
vt 0.088257 0.256348
vt 0.039001 0.227905
vt 0.071838 0.114746
vt 0.88092 0.481628
vt 0.932068 0.481628
vt 0.976257 0.615723
vt 0.962769 0.227905
vt 0.914185 0.369019
vt 0.913452 0.256348
vt 0.88092 0.481628
vt 0.932068 0.481628
vt 0.976257 0.615723
vt 0.962769 0.227905
vt 0.914185 0.369019
vt 0.913452 0.256348
vt 0.950806 0.880737
vt 0.932861 0.739136
vt 0.983887 0.767578
vt 0.88092 0.481628
vt 0.976257 0.615723
vt 0.925842 0.603027
vt 0.950806 0.880737
vt 0.932861 0.739136
vt 0.983887 0.767578
vt 0.88092 0.481628
vt 0.976257 0.615723
vt 0.925842 0.603027
vt 0.695557 0.195068
vt 0.757874 0.148193
vt 0.703369 0.265564
vt 0.243896 0.148193
vt 0.306213 0.195068
vt 0.29834 0.265564
vt 0.306213 0.836182
vt 0.225769 0.862915
vt 0.29834 0.760254
vt 0.779724 0.970703
vt 0.695557 0.836182
vt 0.776001 0.862915
vt 0.243896 0.148193
vt 0.306213 0.195068
vt 0.29834 0.265564
vt 0.695557 0.195068
vt 0.757874 0.148193
vt 0.703369 0.265564
vt 0.500854 0.705688
vt 0.703369 0.344421
vt 0.703369 0.681396
vt 0.500854 0.795837
vt 0.602112 0.784729
vt 0.602112 0.867981
vt 0.757874 0.148193
vt 0.845947 0.017334
vt 0.836304 0.109497
vt 0.913452 0.256348
vt 0.929871 0.114746
vt 0.962769 0.227905
vt 0.757874 0.148193
vt 0.845947 0.017334
vt 0.836304 0.109497
vt 0.913452 0.256348
vt 0.929871 0.114746
vt 0.962769 0.227905
vt 0.29834 0.681396
vt 0.29834 0.760254
vt 0.225769 0.862915
vt 0.779724 0.970703
vt 0.695557 0.836182
vt 0.776001 0.862915
vt 0.703369 0.681396
vt 0.776001 0.862915
vt 0.703369 0.760254
vt 0.769531 0.721985
vt 0.835083 0.665894
vt 0.855652 0.885986
vt 0.865906 0.978149
vt 0.776001 0.862915
vt 0.855652 0.885986
vt 0.950806 0.880737
vt 0.907043 0.837158
vt 0.932861 0.739136
vt 0.050964 0.880737
vt 0.068909 0.739136
vt 0.094666 0.837158
vt 0.232178 0.721985
vt 0.146057 0.885986
vt 0.166687 0.665894
vt 0.050964 0.880737
vt 0.068909 0.739136
vt 0.094666 0.837158
vt 0.232178 0.721985
vt 0.146057 0.885986
vt 0.166687 0.665894
vt 0.500854 0.320129
vt 0.500854 0.705688
vt 0.29834 0.344421
vt 0.500854 0.230042
vt 0.399597 0.241089
vt 0.399658 0.163269
vt 0.500854 0.705688
vt 0.29834 0.344421
vt 0.500854 0.320129
vt 0.500854 0.230042
vt 0.399597 0.241089
vt 0.399658 0.163269
vt 0.602112 0.784729
vt 0.500854 0.795837
vt 0.500854 0.705688
vt 0.399597 0.784729
vt 0.399658 0.867981
vt 0.306213 0.836182
vt 0.769531 0.721985
vt 0.855652 0.885986
vt 0.776001 0.862915
vt 0.703369 0.681396
vt 0.602112 0.784729
vt 0.500854 0.705688
vt 0.12085 0.481628
vt 0.069702 0.481628
vt 0.038208 0.352112
vt 0.88092 0.481628
vt 0.963501 0.352112
vt 0.932068 0.481628
vt 0.88092 0.481628
vt 0.963501 0.352112
vt 0.932068 0.481628
vt 0.12085 0.481628
vt 0.069702 0.481628
vt 0.038208 0.352112
vt 0.929871 0.114746
vt 0.887695 0.158325
vt 0.845947 0.017334
vt 0.071838 0.114746
vt 0.155823 0.017334
vt 0.114075 0.158325
vt 0.929871 0.114746
vt 0.887695 0.158325
vt 0.845947 0.017334
vt 0.071838 0.114746
vt 0.155823 0.017334
vt 0.114075 0.158325
vt 0.763 0.289124
vt 0.703369 0.681396
vt 0.703369 0.344421
vt 0.703369 0.344421
vt 0.757874 0.148193
vt 0.763 0.289124
vt 0.763 0.289124
vt 0.703369 0.681396
vt 0.703369 0.344421
vt 0.703369 0.344421
vt 0.757874 0.148193
vt 0.763 0.289124
vt 0.23877 0.289124
vt 0.29834 0.344421
vt 0.29834 0.681396
vt 0.29834 0.344421
vt 0.23877 0.289124
vt 0.243896 0.148193
vt 0.23877 0.289124
vt 0.29834 0.344421
vt 0.29834 0.681396
vt 0.29834 0.344421
vt 0.23877 0.289124
vt 0.243896 0.148193
vt 0.29834 0.681396
vt 0.500854 0.705688
vt 0.399597 0.784729
vt 0.29834 0.681396
vt 0.29834 0.760254
vt 0.225769 0.862915
vt 0.950806 0.880737
vt 0.865906 0.978149
vt 0.907043 0.837158
vt 0.050964 0.880737
vt 0.094666 0.837158
vt 0.135864 0.978149
vt 0.050964 0.880737
vt 0.094666 0.837158
vt 0.135864 0.978149
vt 0.950806 0.880737
vt 0.865906 0.978149
vt 0.907043 0.837158
vt 0.761353 0.043213
vt 0.757874 0.148193
vt 0.695557 0.195068
vt 0.757874 0.148193
vt 0.761353 0.043213
vt 0.845947 0.017334
vt 0.243896 0.148193
vt 0.155823 0.017334
vt 0.240417 0.043213
vt 0.240417 0.043213
vt 0.306213 0.195068
vt 0.243896 0.148193
vt 0.865906 0.978149
vt 0.776001 0.862915
vt 0.855652 0.885986
vt 0.769531 0.721985
vt 0.855652 0.885986
vt 0.776001 0.862915
vt 0.776001 0.862915
vt 0.695557 0.836182
vt 0.703369 0.760254
vt 0.703369 0.681396
vt 0.776001 0.862915
vt 0.703369 0.760254
vt 0.399597 0.784729
vt 0.29834 0.681396
vt 0.500854 0.705688
vt 0.29834 0.681396
vt 0.29834 0.344421
vt 0.500854 0.705688
vt 0.399658 0.867981
vt 0.399597 0.784729
vt 0.500854 0.795837
vt 0.306213 0.836182
vt 0.225769 0.862915
vt 0.29834 0.760254
vt 0.695557 0.836182
vt 0.602112 0.867981
vt 0.602112 0.784729
vt 0.776001 0.862915
vt 0.695557 0.836182
vt 0.703369 0.760254
vt 0.500854 0.705688
vt 0.602112 0.784729
vt 0.500854 0.795837
vt 0.500854 0.705688
vt 0.500854 0.795837
vt 0.399597 0.784729
vt 0.925842 0.603027
vt 0.976257 0.615723
vt 0.983887 0.767578
vt 0.075867 0.603027
vt 0.017883 0.767578
vt 0.025513 0.615723
vt 0.075867 0.603027
vt 0.017883 0.767578
vt 0.025513 0.615723
vt 0.925842 0.603027
vt 0.976257 0.615723
vt 0.983887 0.767578
vt 0.222046 0.970703
vt 0.225769 0.862915
vt 0.306213 0.836182
vt 0.222046 0.970703
vt 0.135864 0.978149
vt 0.225769 0.862915
vt 0.222046 0.970703
vt 0.225769 0.862915
vt 0.306213 0.836182
vt 0.222046 0.970703
vt 0.135864 0.978149
vt 0.225769 0.862915
vt 0.306213 0.195068
vt 0.399658 0.163269
vt 0.399597 0.241089
vt 0.602112 0.241089
vt 0.602112 0.163269
vt 0.695557 0.195068
vt 0.757874 0.148193
vt 0.761353 0.043213
vt 0.845947 0.017334
vt 0.761353 0.043213
vt 0.757874 0.148193
vt 0.695557 0.195068
vt 0.240417 0.043213
vt 0.306213 0.195068
vt 0.243896 0.148193
vt 0.243896 0.148193
vt 0.155823 0.017334
vt 0.240417 0.043213
vt 0.846191 0.481628
vt 0.824646 0.313965
vt 0.914185 0.369019
vt 0.914185 0.369019
vt 0.963501 0.352112
vt 0.88092 0.481628
vt 0.846191 0.481628
vt 0.824646 0.313965
vt 0.914185 0.369019
vt 0.914185 0.369019
vt 0.963501 0.352112
vt 0.88092 0.481628
vt 0.155518 0.481628
vt 0.087585 0.369019
vt 0.177063 0.313965
vt 0.087585 0.369019
vt 0.12085 0.481628
vt 0.038208 0.352112
vt 0.155518 0.481628
vt 0.087585 0.369019
vt 0.177063 0.313965
vt 0.087585 0.369019
vt 0.12085 0.481628
vt 0.038208 0.352112
vt 0.114075 0.158325
vt 0.155823 0.017334
vt 0.165466 0.109497
vt 0.165466 0.109497
vt 0.177063 0.313965
vt 0.114075 0.158325
vt 0.114075 0.158325
vt 0.155823 0.017334
vt 0.165466 0.109497
vt 0.165466 0.109497
vt 0.177063 0.313965
vt 0.114075 0.158325
vt 0.845947 0.017334
vt 0.887695 0.158325
vt 0.836304 0.109497
vt 0.836304 0.109497
vt 0.887695 0.158325
vt 0.824646 0.313965
vt 0.836304 0.109497
vt 0.887695 0.158325
vt 0.824646 0.313965
vt 0.845947 0.017334
vt 0.887695 0.158325
vt 0.836304 0.109497
vt 0.075867 0.603027
vt 0.155518 0.481628
vt 0.166687 0.665894
vt 0.075867 0.603027
vt 0.068909 0.739136
vt 0.017883 0.767578
vt 0.075867 0.603027
vt 0.155518 0.481628
vt 0.166687 0.665894
vt 0.075867 0.603027
vt 0.068909 0.739136
vt 0.017883 0.767578
vt 0.925842 0.603027
vt 0.835083 0.665894
vt 0.846191 0.481628
vt 0.925842 0.603027
vt 0.983887 0.767578
vt 0.932861 0.739136
vt 0.925842 0.603027
vt 0.835083 0.665894
vt 0.846191 0.481628
vt 0.925842 0.603027
vt 0.983887 0.767578
vt 0.932861 0.739136
vt 0.500854 0.795837
vt 0.602112 0.784729
vt 0.602112 0.867981
vt 0.500854 0.795837
vt 0.500854 0.882324
vt 0.399658 0.867981
vt 0.602112 0.241089
vt 0.703369 0.344421
vt 0.500854 0.320129
vt 0.703369 0.265564
vt 0.757874 0.148193
vt 0.703369 0.344421
vt 0.399597 0.241089
vt 0.500854 0.320129
vt 0.29834 0.344421
vt 0.29834 0.265564
vt 0.29834 0.344421
vt 0.243896 0.148193
vt 0.500854 0.320129
vt 0.602112 0.241089
vt 0.703369 0.344421
vt 0.703369 0.265564
vt 0.757874 0.148193
vt 0.703369 0.344421
vt 0.500854 0.320129
vt 0.29834 0.344421
vt 0.399597 0.241089
vt 0.29834 0.265564
vt 0.29834 0.344421
vt 0.243896 0.148193
vt 0.602112 0.241089
vt 0.500854 0.320129
vt 0.500854 0.230042
vt 0.399597 0.241089
vt 0.500854 0.230042
vt 0.500854 0.320129
vt 0.500854 0.320129
vt 0.399597 0.241089
vt 0.500854 0.230042
vt 0.500854 0.320129
vt 0.500854 0.230042
vt 0.602112 0.241089
vt 0.038208 0.352112
vt 0.039001 0.227905
vt 0.087585 0.369019
vt 0.963501 0.352112
vt 0.914185 0.369019
vt 0.962769 0.227905
vt 0.963501 0.352112
vt 0.914185 0.369019
vt 0.962769 0.227905
vt 0.038208 0.352112
vt 0.039001 0.227905
vt 0.087585 0.369019
vt 0.907043 0.837158
vt 0.865906 0.978149
vt 0.855652 0.885986
vt 0.835083 0.665894
vt 0.907043 0.837158
vt 0.855652 0.885986
vt 0.835083 0.665894
vt 0.907043 0.837158
vt 0.855652 0.885986
vt 0.907043 0.837158
vt 0.865906 0.978149
vt 0.855652 0.885986
vt 0.135864 0.978149
vt 0.094666 0.837158
vt 0.146057 0.885986
vt 0.166687 0.665894
vt 0.146057 0.885986
vt 0.094666 0.837158
vt 0.135864 0.978149
vt 0.094666 0.837158
vt 0.146057 0.885986
vt 0.166687 0.665894
vt 0.146057 0.885986
vt 0.094666 0.837158
vt 0.29834 0.681396
vt 0.225769 0.862915
vt 0.232178 0.721985
vt 0.23877 0.289124
vt 0.29834 0.681396
vt 0.232178 0.721985
vt 0.703369 0.681396
vt 0.769531 0.721985
vt 0.776001 0.862915
vt 0.763 0.289124
vt 0.769531 0.721985
vt 0.703369 0.681396
vt 0.29834 0.681396
vt 0.225769 0.862915
vt 0.232178 0.721985
vt 0.23877 0.289124
vt 0.29834 0.681396
vt 0.232178 0.721985
vt 0.703369 0.681396
vt 0.769531 0.721985
vt 0.776001 0.862915
vt 0.763 0.289124
vt 0.769531 0.721985
vt 0.703369 0.681396
vt 0.114075 0.158325
vt 0.088257 0.256348
vt 0.071838 0.114746
vt 0.088257 0.256348
vt 0.114075 0.158325
vt 0.177063 0.313965
vt 0.114075 0.158325
vt 0.088257 0.256348
vt 0.071838 0.114746
vt 0.088257 0.256348
vt 0.114075 0.158325
vt 0.177063 0.313965
vt 0.887695 0.158325
vt 0.929871 0.114746
vt 0.913452 0.256348
vt 0.913452 0.256348
vt 0.824646 0.313965
vt 0.887695 0.158325
vt 0.887695 0.158325
vt 0.929871 0.114746
vt 0.913452 0.256348
vt 0.913452 0.256348
vt 0.824646 0.313965
vt 0.887695 0.158325
vt 0.177063 0.313965
vt 0.23877 0.289124
vt 0.232178 0.721985
vt 0.23877 0.289124
vt 0.177063 0.313965
vt 0.165466 0.109497
vt 0.177063 0.313965
vt 0.23877 0.289124
vt 0.232178 0.721985
vt 0.23877 0.289124
vt 0.177063 0.313965
vt 0.165466 0.109497
vt 0.824646 0.313965
vt 0.769531 0.721985
vt 0.763 0.289124
vt 0.763 0.289124
vt 0.836304 0.109497
vt 0.824646 0.313965
vt 0.824646 0.313965
vt 0.769531 0.721985
vt 0.763 0.289124
vt 0.763 0.289124
vt 0.836304 0.109497
vt 0.824646 0.313965
vt 0.068909 0.739136
vt 0.075867 0.603027
vt 0.166687 0.665894
vt 0.094666 0.837158
vt 0.068909 0.739136
vt 0.166687 0.665894
vt 0.068909 0.739136
vt 0.075867 0.603027
vt 0.166687 0.665894
vt 0.094666 0.837158
vt 0.068909 0.739136
vt 0.166687 0.665894
vt 0.932861 0.739136
vt 0.835083 0.665894
vt 0.925842 0.603027
vt 0.907043 0.837158
vt 0.835083 0.665894
vt 0.932861 0.739136
vt 0.932861 0.739136
vt 0.835083 0.665894
vt 0.925842 0.603027
vt 0.907043 0.837158
vt 0.835083 0.665894
vt 0.932861 0.739136
vt 0.695557 0.836182
vt 0.602112 0.867981
vt 0.602112 0.784729
vt 0.399597 0.784729
vt 0.399658 0.867981
vt 0.306213 0.836182
vt 0.602112 0.241089
vt 0.602112 0.163269
vt 0.695557 0.195068
vt 0.306213 0.195068
vt 0.399658 0.163269
vt 0.399597 0.241089
vt 0.846191 0.481628
vt 0.88092 0.481628
vt 0.925842 0.603027
vt 0.846191 0.481628
vt 0.914185 0.369019
vt 0.88092 0.481628
vt 0.846191 0.481628
vt 0.88092 0.481628
vt 0.925842 0.603027
vt 0.846191 0.481628
vt 0.914185 0.369019
vt 0.88092 0.481628
vt 0.155518 0.481628
vt 0.075867 0.603027
vt 0.12085 0.481628
vt 0.155518 0.481628
vt 0.12085 0.481628
vt 0.087585 0.369019
vt 0.155518 0.481628
vt 0.075867 0.603027
vt 0.12085 0.481628
vt 0.155518 0.481628
vt 0.12085 0.481628
vt 0.087585 0.369019
vt 0.500854 0.795837
vt 0.500854 0.882324
vt 0.399658 0.867981
vt 0.602112 0.867981
vt 0.500854 0.882324
vt 0.500854 0.795837
vt 0.500854 0.230042
vt 0.500854 0.148926
vt 0.602112 0.163269
vt 0.399658 0.163269
vt 0.500854 0.148926
vt 0.500854 0.230042
vt 0.602112 0.784729
vt 0.703369 0.760254
vt 0.695557 0.836182
vt 0.602112 0.784729
vt 0.703369 0.681396
vt 0.703369 0.760254
vt 0.399597 0.241089
vt 0.29834 0.344421
vt 0.29834 0.265564
vt 0.399597 0.241089
vt 0.29834 0.265564
vt 0.306213 0.195068
vt 0.602112 0.241089
vt 0.703369 0.265564
vt 0.703369 0.344421
vt 0.695557 0.195068
vt 0.703369 0.265564
vt 0.602112 0.241089
vt 0.399597 0.241089
vt 0.29834 0.344421
vt 0.29834 0.265564
vt 0.399597 0.241089
vt 0.29834 0.265564
vt 0.306213 0.195068
vt 0.602112 0.241089
vt 0.703369 0.265564
vt 0.703369 0.344421
vt 0.695557 0.195068
vt 0.703369 0.265564
vt 0.602112 0.241089
vt 0.29834 0.681396
vt 0.399597 0.784729
vt 0.29834 0.760254
vt 0.306213 0.836182
vt 0.29834 0.760254
vt 0.399597 0.784729
vt 0.703369 0.681396
vt 0.703369 0.760254
vt 0.602112 0.784729
vt 0.602112 0.784729
vt 0.703369 0.760254
vt 0.695557 0.836182
vt 0.306213 0.836182
vt 0.29834 0.760254
vt 0.399597 0.784729
vt 0.399597 0.784729
vt 0.29834 0.760254
vt 0.29834 0.681396

# 756 Vertex Normals
vn -0.080722 0.24638 0.965806
vn -0.0 0.239933 0.970789
vn -0.087002 -0.238551 0.967225
vn -0.087002 -0.238552 -0.967225
vn 0.0 0.239933 -0.970789
vn -0.080722 0.246381 -0.965806
vn 0.0 -0.318896 -0.94779
vn 0.087002 -0.23855 -0.967225
vn 0.0 0.239933 -0.970789
vn -0.087002 -0.238551 0.967225
vn -0.0 0.239933 0.970789
vn 0.0 -0.318896 0.94779
vn 0.171138 0.045857 -0.984179
vn 0.313485 -0.01874 -0.949408
vn 0.16099 -0.057865 -0.985258
vn 0.160988 -0.057864 0.985259
vn 0.171136 0.045856 0.98418
vn -0.015685 0.130575 0.991314
vn -0.171138 0.045857 0.984179
vn -0.313485 -0.01874 0.949408
vn -0.16099 -0.057865 0.985258
vn -0.171136 0.045856 -0.98418
vn -0.160988 -0.057864 -0.985259
vn -0.313481 -0.018739 -0.94941
vn -0.103784 0.749465 0.653858
vn -0.0 0.239933 0.970789
vn -0.000001 0.835231 0.5499
vn -0.848255 -0.045351 0.527643
vn -0.698714 -0.204153 0.685653
vn -0.891959 -0.392869 0.223749
vn 0.706957 0.128737 -0.695441
vn 0.69909 -0.199937 -0.686512
vn 0.16099 -0.057865 -0.985258
vn 0.706956 0.128737 0.695442
vn 0.160988 -0.057864 0.985259
vn 0.69909 -0.199937 0.686512
vn -0.160988 -0.057864 -0.985259
vn -0.171136 0.045856 -0.98418
vn 0.015685 0.130575 -0.991314
vn -0.132363 0.877696 0.460575
vn -0.099128 0.517882 0.84969
vn 0.323991 0.665189 0.672721
vn 0.103784 0.749465 0.653858
vn -0.0 0.239933 0.970789
vn -0.080722 0.24638 0.965806
vn 0.16099 -0.057865 -0.985258
vn -0.015685 0.130577 -0.991314
vn 0.171138 0.045857 -0.984179
vn -0.706957 0.128737 0.695441
vn -0.69909 -0.199937 0.686512
vn -0.16099 -0.057865 0.985258
vn -0.706956 0.128737 -0.695442
vn -0.160988 -0.057864 -0.985259
vn -0.69909 -0.199937 -0.686512
vn -0.437562 -0.617081 -0.654027
vn -0.061793 -0.12774 -0.989881
vn 0.066666 -0.523112 -0.849653
vn 0.000001 -0.835219 -0.549918
vn 0.0 -0.939545 -0.342425
vn -0.089548 -0.935452 -0.341923
vn 0.437562 -0.61708 0.654028
vn 0.061793 -0.127741 0.989881
vn -0.066665 -0.523111 0.849653
vn -0.089549 -0.935451 0.341925
vn 0.0 -0.939545 0.342425
vn 0.0 -0.835219 0.549918
vn -0.373893 0.8301 0.413688
vn -0.323992 0.665189 0.672721
vn 0.132363 0.877698 0.460572
vn 0.715861 0.54781 0.432951
vn 0.42808 0.512906 0.744094
vn 0.702369 0.171592 0.690821
vn 0.848254 -0.045351 -0.527644
vn 0.698714 -0.204153 -0.685654
vn 0.891958 -0.392869 -0.22375
vn 0.171136 0.045856 0.98418
vn 0.160988 -0.057864 0.985259
vn 0.313481 -0.018739 0.94941
vn -0.437563 -0.61708 0.654026
vn 0.066666 -0.523111 0.849653
vn -0.061793 -0.127739 0.989881
vn 0.089549 -0.935451 0.341925
vn 0.103782 -0.749464 0.65386
vn 0.0 -0.835219 0.549918
vn 0.437562 -0.61708 -0.654027
vn -0.066665 -0.52311 -0.849654
vn 0.061793 -0.127739 -0.989881
vn -0.089548 -0.935452 -0.341923
vn -0.103782 -0.749464 -0.65386
vn 0.000001 -0.835219 -0.549918
vn -0.089545 0.935464 -0.341889
vn 0.0 0.939558 -0.34239
vn -0.0 0.83523 -0.5499
vn 0.373893 0.8301 -0.413688
vn 0.323992 0.665189 -0.672721
vn -0.132363 0.877698 -0.460572
vn 0.015685 0.130575 -0.991314
vn -0.171136 0.045856 -0.98418
vn -0.099128 0.517881 -0.84969
vn -0.715861 0.547809 0.432954
vn -0.951406 0.068207 0.30029
vn -0.702369 0.171592 0.690822
vn -0.015685 0.130577 -0.991314
vn -0.323991 0.665189 -0.672721
vn 0.099128 0.517882 -0.84969
vn 0.089545 0.935464 -0.341889
vn 0.103784 0.749465 -0.653858
vn -0.0 0.83523 -0.5499
vn 0.132363 0.877696 -0.460575
vn 0.099128 0.517882 -0.84969
vn -0.323991 0.665189 -0.672721
vn 0.715861 0.547809 -0.432954
vn 0.951406 0.068207 -0.30029
vn 0.702369 0.171592 -0.690822
vn 0.015685 0.130577 0.991314
vn 0.323991 0.665189 0.672721
vn -0.099128 0.517882 0.84969
vn -0.16099 -0.057865 0.985258
vn 0.015685 0.130577 0.991314
vn -0.171138 0.045857 0.984179
vn 0.848254 -0.045351 -0.527644
vn 0.891958 -0.392869 -0.22375
vn 0.959626 -0.048161 -0.277127
vn 0.940499 -0.133506 -0.312471
vn 0.69909 -0.199937 -0.686512
vn 0.706957 0.128737 -0.695441
vn -0.848255 -0.045351 0.527643
vn -0.891959 -0.392869 0.223749
vn -0.959626 -0.04816 0.277127
vn -0.940499 -0.133506 0.312471
vn -0.69909 -0.199937 0.686512
vn -0.706957 0.128737 0.695441
vn 0.437562 -0.61708 0.654028
vn -0.066665 -0.523111 0.849653
vn -0.084596 -0.88224 0.463137
vn -0.69909 -0.199937 0.686512
vn -0.940499 -0.133506 0.312471
vn -0.715861 -0.547804 0.432959
vn -0.437562 -0.617081 -0.654027
vn 0.066666 -0.523112 -0.849653
vn 0.084597 -0.882241 -0.463135
vn 0.69909 -0.199937 -0.686512
vn 0.940499 -0.133506 -0.312471
vn 0.715861 -0.547804 -0.432959
vn 0.848253 -0.045351 0.527645
vn 0.959626 -0.048161 0.277125
vn 0.891959 -0.392869 0.223748
vn 0.940499 -0.133506 0.312469
vn 0.706956 0.128737 0.695442
vn 0.69909 -0.199937 0.686512
vn -0.848254 -0.045351 -0.527645
vn -0.959626 -0.04816 -0.277125
vn -0.891959 -0.392869 -0.223747
vn -0.940499 -0.133506 -0.312469
vn -0.706956 0.128737 -0.695442
vn -0.69909 -0.199937 -0.686512
vn 0.715861 0.54781 0.432951
vn 0.702369 0.171592 0.690821
vn 0.951407 0.068207 0.300288
vn 0.848253 -0.045351 0.527645
vn 0.891959 -0.392869 0.223748
vn 0.698713 -0.204152 0.685655
vn -0.715861 0.54781 -0.432951
vn -0.702369 0.171592 -0.690821
vn -0.951407 0.068207 -0.300288
vn -0.848254 -0.045351 -0.527645
vn -0.891959 -0.392869 -0.223747
vn -0.698713 -0.204153 -0.685654
vn -0.33022 -0.866021 0.375451
vn -0.437563 -0.61708 0.654026
vn -0.293273 -0.687377 0.664457
vn -0.437562 -0.617081 -0.654027
vn -0.330219 -0.866021 -0.375451
vn -0.293272 -0.687377 -0.664458
vn -0.238496 0.8933 -0.380965
vn -0.323991 0.665189 -0.672721
vn -0.20364 0.713268 -0.670656
vn -0.373893 0.8301 0.413688
vn -0.238496 0.893301 0.380964
vn -0.323992 0.665189 0.672721
vn 0.437562 -0.61708 0.654028
vn 0.330219 -0.866021 0.375451
vn 0.293272 -0.687377 0.664458
vn 0.330219 -0.866021 -0.37545
vn 0.437562 -0.61708 -0.654027
vn 0.293272 -0.687377 -0.664458
vn 0.0 0.239933 -0.970789
vn 0.087002 -0.23855 -0.967225
vn 0.080722 0.24638 -0.965806
vn -0.0 0.83523 -0.5499
vn -0.103784 0.749465 -0.653858
vn -0.089545 0.935464 -0.341889
vn 0.437562 -0.61708 -0.654027
vn -0.084596 -0.882241 -0.463135
vn -0.066665 -0.52311 -0.849654
vn -0.69909 -0.199937 -0.686512
vn -0.715862 -0.547805 -0.432956
vn -0.940499 -0.133506 -0.312469
vn -0.437563 -0.61708 0.654026
vn 0.084597 -0.882242 0.463132
vn 0.066666 -0.523111 0.849653
vn 0.69909 -0.199937 0.686512
vn 0.715862 -0.547805 0.432956
vn 0.940499 -0.133506 0.312469
vn 0.080722 0.246381 0.965806
vn 0.20364 0.713268 0.670656
vn 0.323991 0.665189 0.672721
vn 0.373893 0.8301 -0.413688
vn 0.238496 0.893301 -0.380964
vn 0.323992 0.665189 -0.672721
vn -0.080722 0.24638 0.965806
vn -0.323992 0.665189 0.672721
vn -0.20364 0.713268 0.670656
vn -0.015685 0.130575 0.991314
vn 0.171136 0.045856 0.98418
vn 0.099128 0.517881 0.84969
vn -0.132363 0.877698 -0.460572
vn 0.323992 0.665189 -0.672721
vn -0.099128 0.517881 -0.84969
vn -0.715861 0.54781 -0.432951
vn -0.42808 0.512906 -0.744094
vn -0.702369 0.171592 -0.690821
vn -0.715861 0.547809 0.432954
vn -0.702369 0.171592 0.690822
vn -0.428079 0.512905 0.744094
vn 0.015685 0.130577 0.991314
vn -0.099128 0.517882 0.84969
vn -0.171138 0.045857 0.984179
vn 0.715861 0.547809 -0.432954
vn 0.702369 0.171592 -0.690822
vn 0.428079 0.512905 -0.744094
vn -0.015685 0.130577 -0.991314
vn 0.099128 0.517882 -0.84969
vn 0.171138 0.045857 -0.984179
vn 0.0 -0.318896 -0.94779
vn 0.0 0.239933 -0.970789
vn -0.087002 -0.238552 -0.967225
vn 0.000001 -0.835219 -0.549918
vn 0.103782 -0.749464 -0.65386
vn 0.089549 -0.935451 -0.341925
vn -0.0 0.239933 0.970789
vn 0.087002 -0.238552 0.967225
vn 0.0 -0.318896 0.94779
vn 0.0 -0.835219 0.549918
vn -0.103782 -0.749464 0.65386
vn -0.089549 -0.935451 0.341925
vn 0.103784 0.749465 0.653858
vn -0.000001 0.835231 0.5499
vn -0.0 0.239933 0.970789
vn 0.103784 0.749465 -0.653858
vn 0.089545 0.935464 -0.341889
vn -0.238496 0.8933 -0.380965
vn 0.015685 0.130575 -0.991314
vn -0.099128 0.517881 -0.84969
vn 0.323992 0.665189 -0.672721
vn 0.080722 0.24638 -0.965806
vn -0.103784 0.749465 -0.653858
vn 0.0 0.239933 -0.970789
vn 0.848254 -0.045351 -0.527644
vn 0.959626 -0.048161 -0.277127
vn 0.922111 0.301872 -0.242042
vn 0.848253 -0.045351 0.527645
vn 0.922112 0.301872 0.24204
vn 0.959626 -0.048161 0.277125
vn -0.848254 -0.045351 -0.527645
vn -0.922112 0.301872 -0.24204
vn -0.959626 -0.04816 -0.277125
vn -0.848255 -0.045351 0.527643
vn -0.959626 -0.04816 0.277127
vn -0.922111 0.301872 0.242042
vn -0.715862 -0.547805 -0.432956
vn -0.432891 -0.516673 -0.738685
vn -0.084596 -0.882241 -0.463135
vn -0.715861 -0.547804 0.432959
vn -0.084596 -0.88224 0.463137
vn -0.432891 -0.516672 0.738685
vn 0.715862 -0.547805 0.432956
vn 0.432893 -0.516672 0.738683
vn 0.084597 -0.882242 0.463132
vn 0.715861 -0.547804 -0.432959
vn 0.084597 -0.882241 -0.463135
vn 0.432893 -0.516672 -0.738684
vn 0.061793 -0.127739 -0.989881
vn 0.080722 0.24638 -0.965806
vn 0.087002 -0.23855 -0.967225
vn 0.087002 -0.23855 -0.967225
vn 0.437562 -0.61708 -0.654027
vn 0.061793 -0.127739 -0.989881
vn -0.061793 -0.127739 0.989881
vn -0.080722 0.24638 0.965806
vn -0.087002 -0.238551 0.967225
vn -0.087002 -0.238551 0.967225
vn -0.437563 -0.61708 0.654026
vn -0.061793 -0.127739 0.989881
vn -0.061793 -0.12774 -0.989881
vn -0.087002 -0.238552 -0.967225
vn -0.080722 0.246381 -0.965806
vn -0.087002 -0.238552 -0.967225
vn -0.061793 -0.12774 -0.989881
vn -0.437562 -0.617081 -0.654027
vn 0.061793 -0.127741 0.989881
vn 0.087002 -0.238552 0.967225
vn 0.080722 0.246381 0.965806
vn 0.087002 -0.238552 0.967225
vn 0.061793 -0.127741 0.989881
vn 0.437562 -0.61708 0.654028
vn -0.080722 0.246381 -0.965806
vn 0.0 0.239933 -0.970789
vn 0.103784 0.749465 -0.653858
vn -0.080722 0.246381 -0.965806
vn -0.20364 0.713268 -0.670656
vn -0.323991 0.665189 -0.672721
vn -0.715861 0.54781 -0.432951
vn -0.132363 0.877698 -0.460572
vn -0.42808 0.512906 -0.744094
vn -0.715861 0.547809 0.432954
vn -0.428079 0.512905 0.744094
vn -0.132363 0.877696 0.460575
vn 0.715861 0.547809 -0.432954
vn 0.428079 0.512905 -0.744094
vn 0.132363 0.877696 -0.460575
vn 0.715861 0.54781 0.432951
vn 0.132363 0.877698 0.460572
vn 0.42808 0.512906 0.744094
vn -0.50179 -0.774164 0.385845
vn -0.437563 -0.61708 0.654026
vn -0.33022 -0.866021 0.375451
vn -0.437563 -0.61708 0.654026
vn -0.50179 -0.774164 0.385845
vn 0.084597 -0.882242 0.463132
vn 0.437562 -0.61708 0.654028
vn -0.084596 -0.88224 0.463137
vn 0.50179 -0.774163 0.385848
vn 0.50179 -0.774163 0.385848
vn 0.330219 -0.866021 0.375451
vn 0.437562 -0.61708 0.654028
vn 0.132363 0.877698 0.460572
vn -0.323992 0.665189 0.672721
vn 0.099128 0.517881 0.84969
vn -0.015685 0.130575 0.991314
vn 0.099128 0.517881 0.84969
vn -0.323992 0.665189 0.672721
vn 0.323992 0.665189 -0.672721
vn 0.238496 0.893301 -0.380964
vn 0.203641 0.713268 -0.670656
vn 0.080722 0.24638 -0.965806
vn 0.323992 0.665189 -0.672721
vn 0.203641 0.713268 -0.670656
vn -0.103784 0.749465 0.653858
vn 0.080722 0.246381 0.965806
vn -0.0 0.239933 0.970789
vn 0.080722 0.246381 0.965806
vn 0.087002 -0.238552 0.967225
vn -0.0 0.239933 0.970789
vn -0.089545 0.935464 0.341889
vn -0.103784 0.749465 0.653858
vn -0.000001 0.835231 0.5499
vn 0.238496 0.8933 0.380965
vn 0.323991 0.665189 0.672721
vn 0.20364 0.713268 0.670656
vn -0.238496 0.893301 0.380964
vn 0.089544 0.935465 0.341888
vn 0.103784 0.749465 0.653858
vn -0.323992 0.665189 0.672721
vn -0.238496 0.893301 0.380964
vn -0.20364 0.713268 0.670656
vn 0.0 0.239933 -0.970789
vn -0.103784 0.749465 -0.653858
vn -0.0 0.83523 -0.5499
vn 0.0 0.239933 -0.970789
vn -0.0 0.83523 -0.5499
vn 0.103784 0.749465 -0.653858
vn -0.698713 -0.204153 -0.685654
vn -0.891959 -0.392869 -0.223747
vn -0.951407 0.068207 -0.300288
vn -0.698714 -0.204153 0.685653
vn -0.951406 0.068207 0.30029
vn -0.891959 -0.392869 0.223749
vn 0.698714 -0.204153 -0.685654
vn 0.951406 0.068207 -0.30029
vn 0.891958 -0.392869 -0.22375
vn 0.698713 -0.204152 0.685655
vn 0.891959 -0.392869 0.223748
vn 0.951407 0.068207 0.300288
vn 0.373893 0.830099 0.41369
vn 0.323991 0.665189 0.672721
vn 0.238496 0.8933 0.380965
vn 0.373893 0.830099 0.41369
vn -0.132363 0.877696 0.460575
vn 0.323991 0.665189 0.672721
vn -0.373893 0.830099 -0.41369
vn -0.323991 0.665189 -0.672721
vn -0.238496 0.8933 -0.380965
vn -0.373893 0.830099 -0.41369
vn 0.132363 0.877696 -0.460575
vn -0.323991 0.665189 -0.672721
vn -0.330219 -0.866021 -0.375451
vn 0.089549 -0.935451 -0.341925
vn 0.103782 -0.749464 -0.65386
vn 0.103782 -0.749464 0.65386
vn 0.089549 -0.935451 0.341925
vn -0.33022 -0.866021 0.375451
vn 0.437562 -0.61708 -0.654027
vn 0.501791 -0.774164 -0.385845
vn -0.084596 -0.882241 -0.463135
vn 0.501791 -0.774164 -0.385845
vn 0.437562 -0.61708 -0.654027
vn 0.330219 -0.866021 -0.37545
vn -0.50179 -0.774163 -0.385848
vn -0.330219 -0.866021 -0.375451
vn -0.437562 -0.617081 -0.654027
vn -0.437562 -0.617081 -0.654027
vn 0.084597 -0.882241 -0.463135
vn -0.50179 -0.774163 -0.385848
vn -0.313481 -0.018739 -0.94941
vn -0.160988 -0.057864 -0.985259
vn -0.706956 0.128737 -0.695442
vn -0.706956 0.128737 -0.695442
vn -0.922112 0.301872 -0.24204
vn -0.848254 -0.045351 -0.527645
vn 0.313481 -0.018739 0.94941
vn 0.160988 -0.057864 0.985259
vn 0.706956 0.128737 0.695442
vn 0.706956 0.128737 0.695442
vn 0.922112 0.301872 0.24204
vn 0.848253 -0.045351 0.527645
vn -0.313485 -0.01874 0.949408
vn -0.706957 0.128737 0.695441
vn -0.16099 -0.057865 0.985258
vn -0.706957 0.128737 0.695441
vn -0.848255 -0.045351 0.527643
vn -0.922111 0.301872 0.242042
vn 0.313485 -0.01874 -0.949408
vn 0.706957 0.128737 -0.695441
vn 0.16099 -0.057865 -0.985258
vn 0.706957 0.128737 -0.695441
vn 0.848254 -0.045351 -0.527644
vn 0.922111 0.301872 -0.242042
vn -0.432891 -0.516672 0.738685
vn -0.084596 -0.88224 0.463137
vn -0.066665 -0.523111 0.849653
vn -0.066665 -0.523111 0.849653
vn -0.16099 -0.057865 0.985258
vn -0.432891 -0.516672 0.738685
vn 0.432893 -0.516672 -0.738684
vn 0.084597 -0.882241 -0.463135
vn 0.066666 -0.523112 -0.849653
vn 0.066666 -0.523112 -0.849653
vn 0.16099 -0.057865 -0.985258
vn 0.432893 -0.516672 -0.738684
vn -0.084596 -0.882241 -0.463135
vn -0.432891 -0.516673 -0.738685
vn -0.066665 -0.52311 -0.849654
vn -0.066665 -0.52311 -0.849654
vn -0.432891 -0.516673 -0.738685
vn -0.160988 -0.057864 -0.985259
vn 0.066666 -0.523111 0.849653
vn 0.432893 -0.516672 0.738683
vn 0.160988 -0.057864 0.985259
vn 0.084597 -0.882242 0.463132
vn 0.432893 -0.516672 0.738683
vn 0.066666 -0.523111 0.849653
vn -0.698714 -0.204153 0.685653
vn -0.313485 -0.01874 0.949408
vn -0.171138 0.045857 0.984179
vn -0.698714 -0.204153 0.685653
vn -0.702369 0.171592 0.690822
vn -0.951406 0.068207 0.30029
vn 0.698714 -0.204153 -0.685654
vn 0.313485 -0.01874 -0.949408
vn 0.171138 0.045857 -0.984179
vn 0.698714 -0.204153 -0.685654
vn 0.702369 0.171592 -0.690822
vn 0.951406 0.068207 -0.30029
vn -0.698713 -0.204153 -0.685654
vn -0.171136 0.045856 -0.98418
vn -0.313481 -0.018739 -0.94941
vn -0.698713 -0.204153 -0.685654
vn -0.951407 0.068207 -0.300288
vn -0.702369 0.171592 -0.690821
vn 0.698713 -0.204152 0.685655
vn 0.171136 0.045856 0.98418
vn 0.313481 -0.018739 0.94941
vn 0.698713 -0.204152 0.685655
vn 0.951407 0.068207 0.300288
vn 0.702369 0.171592 0.690821
vn -0.000001 0.835231 0.5499
vn 0.103784 0.749465 0.653858
vn 0.089544 0.935465 0.341888
vn -0.000001 0.835231 0.5499
vn 0.0 0.939558 0.34239
vn -0.089545 0.935464 0.341889
vn -0.103782 -0.749464 -0.65386
vn 0.087002 -0.23855 -0.967225
vn 0.0 -0.318896 -0.94779
vn 0.293272 -0.687377 -0.664458
vn 0.437562 -0.61708 -0.654027
vn 0.087002 -0.23855 -0.967225
vn 0.103782 -0.749464 -0.65386
vn 0.0 -0.318896 -0.94779
vn -0.087002 -0.238552 -0.967225
vn -0.293272 -0.687377 -0.664458
vn -0.087002 -0.238552 -0.967225
vn -0.437562 -0.617081 -0.654027
vn 0.0 -0.318896 0.94779
vn 0.103782 -0.749464 0.65386
vn -0.087002 -0.238551 0.967225
vn -0.293273 -0.687377 0.664457
vn -0.437563 -0.61708 0.654026
vn -0.087002 -0.238551 0.967225
vn 0.0 -0.318896 0.94779
vn 0.087002 -0.238552 0.967225
vn -0.103782 -0.749464 0.65386
vn 0.293272 -0.687377 0.664458
vn 0.087002 -0.238552 0.967225
vn 0.437562 -0.61708 0.654028
vn -0.103782 -0.749464 -0.65386
vn 0.0 -0.318896 -0.94779
vn 0.000001 -0.835219 -0.549918
vn 0.103782 -0.749464 -0.65386
vn 0.000001 -0.835219 -0.549918
vn 0.0 -0.318896 -0.94779
vn 0.0 -0.318896 0.94779
vn -0.103782 -0.749464 0.65386
vn 0.0 -0.835219 0.549918
vn 0.0 -0.318896 0.94779
vn 0.0 -0.835219 0.549918
vn 0.103782 -0.749464 0.65386
vn 0.922111 0.301872 -0.242042
vn 0.940499 -0.133506 -0.312471
vn 0.706957 0.128737 -0.695441
vn 0.922112 0.301872 0.24204
vn 0.706956 0.128737 0.695442
vn 0.940499 -0.133506 0.312469
vn -0.922112 0.301872 -0.24204
vn -0.706956 0.128737 -0.695442
vn -0.940499 -0.133506 -0.312469
vn -0.922111 0.301872 0.242042
vn -0.940499 -0.133506 0.312471
vn -0.706957 0.128737 0.695441
vn -0.42808 0.512906 -0.744094
vn -0.132363 0.877698 -0.460572
vn -0.099128 0.517881 -0.84969
vn -0.171136 0.045856 -0.98418
vn -0.42808 0.512906 -0.744094
vn -0.099128 0.517881 -0.84969
vn 0.171136 0.045856 0.98418
vn 0.42808 0.512906 0.744094
vn 0.099128 0.517881 0.84969
vn 0.42808 0.512906 0.744094
vn 0.132363 0.877698 0.460572
vn 0.099128 0.517881 0.84969
vn -0.132363 0.877696 0.460575
vn -0.428079 0.512905 0.744094
vn -0.099128 0.517882 0.84969
vn -0.171138 0.045857 0.984179
vn -0.099128 0.517882 0.84969
vn -0.428079 0.512905 0.744094
vn 0.132363 0.877696 -0.460575
vn 0.428079 0.512905 -0.744094
vn 0.099128 0.517882 -0.84969
vn 0.171138 0.045857 -0.984179
vn 0.099128 0.517882 -0.84969
vn 0.428079 0.512905 -0.744094
vn -0.080722 0.246381 -0.965806
vn -0.323991 0.665189 -0.672721
vn -0.015685 0.130577 -0.991314
vn -0.061793 -0.12774 -0.989881
vn -0.080722 0.246381 -0.965806
vn -0.015685 0.130577 -0.991314
vn -0.080722 0.24638 0.965806
vn -0.015685 0.130575 0.991314
vn -0.323992 0.665189 0.672721
vn -0.061793 -0.127739 0.989881
vn -0.015685 0.130575 0.991314
vn -0.080722 0.24638 0.965806
vn 0.080722 0.246381 0.965806
vn 0.323991 0.665189 0.672721
vn 0.015685 0.130577 0.991314
vn 0.061793 -0.127741 0.989881
vn 0.080722 0.246381 0.965806
vn 0.015685 0.130577 0.991314
vn 0.080722 0.24638 -0.965806
vn 0.015685 0.130575 -0.991314
vn 0.323992 0.665189 -0.672721
vn 0.061793 -0.127739 -0.989881
vn 0.015685 0.130575 -0.991314
vn 0.080722 0.24638 -0.965806
vn -0.432891 -0.516672 0.738685
vn -0.69909 -0.199937 0.686512
vn -0.715861 -0.547804 0.432959
vn -0.69909 -0.199937 0.686512
vn -0.432891 -0.516672 0.738685
vn -0.16099 -0.057865 0.985258
vn 0.432893 -0.516672 -0.738684
vn 0.69909 -0.199937 -0.686512
vn 0.715861 -0.547804 -0.432959
vn 0.69909 -0.199937 -0.686512
vn 0.432893 -0.516672 -0.738684
vn 0.16099 -0.057865 -0.985258
vn -0.432891 -0.516673 -0.738685
vn -0.715862 -0.547805 -0.432956
vn -0.69909 -0.199937 -0.686512
vn -0.69909 -0.199937 -0.686512
vn -0.160988 -0.057864 -0.985259
vn -0.432891 -0.516673 -0.738685
vn 0.432893 -0.516672 0.738683
vn 0.715862 -0.547805 0.432956
vn 0.69909 -0.199937 0.686512
vn 0.69909 -0.199937 0.686512
vn 0.160988 -0.057864 0.985259
vn 0.432893 -0.516672 0.738683
vn -0.16099 -0.057865 0.985258
vn 0.061793 -0.127741 0.989881
vn 0.015685 0.130577 0.991314
vn 0.061793 -0.127741 0.989881
vn -0.16099 -0.057865 0.985258
vn -0.066665 -0.523111 0.849653
vn 0.16099 -0.057865 -0.985258
vn -0.061793 -0.12774 -0.989881
vn -0.015685 0.130577 -0.991314
vn -0.061793 -0.12774 -0.989881
vn 0.16099 -0.057865 -0.985258
vn 0.066666 -0.523112 -0.849653
vn -0.160988 -0.057864 -0.985259
vn 0.015685 0.130575 -0.991314
vn 0.061793 -0.127739 -0.989881
vn 0.061793 -0.127739 -0.989881
vn -0.066665 -0.52311 -0.849654
vn -0.160988 -0.057864 -0.985259
vn 0.160988 -0.057864 0.985259
vn -0.015685 0.130575 0.991314
vn -0.061793 -0.127739 0.989881
vn -0.061793 -0.127739 0.989881
vn 0.066666 -0.523111 0.849653
vn 0.160988 -0.057864 0.985259
vn -0.702369 0.171592 0.690822
vn -0.698714 -0.204153 0.685653
vn -0.171138 0.045857 0.984179
vn -0.428079 0.512905 0.744094
vn -0.702369 0.171592 0.690822
vn -0.171138 0.045857 0.984179
vn 0.702369 0.171592 -0.690822
vn 0.698714 -0.204153 -0.685654
vn 0.171138 0.045857 -0.984179
vn 0.428079 0.512905 -0.744094
vn 0.702369 0.171592 -0.690822
vn 0.171138 0.045857 -0.984179
vn -0.702369 0.171592 -0.690821
vn -0.171136 0.045856 -0.98418
vn -0.698713 -0.204153 -0.685654
vn -0.42808 0.512906 -0.744094
vn -0.171136 0.045856 -0.98418
vn -0.702369 0.171592 -0.690821
vn 0.702369 0.171592 0.690821
vn 0.171136 0.045856 0.98418
vn 0.698713 -0.204152 0.685655
vn 0.42808 0.512906 0.744094
vn 0.171136 0.045856 0.98418
vn 0.702369 0.171592 0.690821
vn 0.238496 0.893301 -0.380964
vn -0.089545 0.935464 -0.341889
vn -0.103784 0.749465 -0.653858
vn -0.103784 0.749465 0.653858
vn -0.089545 0.935464 0.341889
vn 0.238496 0.8933 0.380965
vn -0.103782 -0.749464 -0.65386
vn -0.089548 -0.935452 -0.341923
vn 0.330219 -0.866021 -0.37545
vn 0.330219 -0.866021 0.375451
vn -0.089549 -0.935451 0.341925
vn -0.103782 -0.749464 0.65386
vn -0.313481 -0.018739 -0.94941
vn -0.848254 -0.045351 -0.527645
vn -0.698713 -0.204153 -0.685654
vn -0.313481 -0.018739 -0.94941
vn -0.706956 0.128737 -0.695442
vn -0.848254 -0.045351 -0.527645
vn 0.313481 -0.018739 0.94941
vn 0.848253 -0.045351 0.527645
vn 0.698713 -0.204152 0.685655
vn 0.313481 -0.018739 0.94941
vn 0.706956 0.128737 0.695442
vn 0.848253 -0.045351 0.527645
vn -0.313485 -0.01874 0.949408
vn -0.698714 -0.204153 0.685653
vn -0.848255 -0.045351 0.527643
vn -0.313485 -0.01874 0.949408
vn -0.848255 -0.045351 0.527643
vn -0.706957 0.128737 0.695441
vn 0.313485 -0.01874 -0.949408
vn 0.698714 -0.204153 -0.685654
vn 0.848254 -0.045351 -0.527644
vn 0.313485 -0.01874 -0.949408
vn 0.848254 -0.045351 -0.527644
vn 0.706957 0.128737 -0.695441
vn -0.0 0.83523 -0.5499
vn 0.0 0.939558 -0.34239
vn 0.089545 0.935464 -0.341889
vn 0.089544 0.935465 0.341888
vn 0.0 0.939558 0.34239
vn -0.000001 0.835231 0.5499
vn 0.0 -0.835219 0.549918
vn 0.0 -0.939545 0.342425
vn 0.089549 -0.935451 0.341925
vn 0.089549 -0.935451 -0.341925
vn 0.0 -0.939545 -0.342425
vn 0.000001 -0.835219 -0.549918
vn 0.103784 0.749465 0.653858
vn -0.20364 0.713268 0.670656
vn -0.238496 0.893301 0.380964
vn 0.103784 0.749465 0.653858
vn -0.080722 0.24638 0.965806
vn -0.20364 0.713268 0.670656
vn 0.103782 -0.749464 -0.65386
vn -0.087002 -0.238552 -0.967225
vn -0.293272 -0.687377 -0.664458
vn 0.103782 -0.749464 -0.65386
vn -0.293272 -0.687377 -0.664458
vn -0.330219 -0.866021 -0.375451
vn -0.103782 -0.749464 -0.65386
vn 0.293272 -0.687377 -0.664458
vn 0.087002 -0.23855 -0.967225
vn 0.330219 -0.866021 -0.37545
vn 0.293272 -0.687377 -0.664458
vn -0.103782 -0.749464 -0.65386
vn -0.103782 -0.749464 0.65386
vn 0.087002 -0.238552 0.967225
vn 0.293272 -0.687377 0.664458
vn -0.103782 -0.749464 0.65386
vn 0.293272 -0.687377 0.664458
vn 0.330219 -0.866021 0.375451
vn 0.103782 -0.749464 0.65386
vn -0.293273 -0.687377 0.664457
vn -0.087002 -0.238551 0.967225
vn -0.33022 -0.866021 0.375451
vn -0.293273 -0.687377 0.664457
vn 0.103782 -0.749464 0.65386
vn -0.080722 0.246381 -0.965806
vn 0.103784 0.749465 -0.653858
vn -0.20364 0.713268 -0.670656
vn -0.238496 0.8933 -0.380965
vn -0.20364 0.713268 -0.670656
vn 0.103784 0.749465 -0.653858
vn 0.080722 0.24638 -0.965806
vn 0.203641 0.713268 -0.670656
vn -0.103784 0.749465 -0.653858
vn -0.103784 0.749465 -0.653858
vn 0.203641 0.713268 -0.670656
vn 0.238496 0.893301 -0.380964
vn 0.238496 0.8933 0.380965
vn 0.20364 0.713268 0.670656
vn -0.103784 0.749465 0.653858
vn -0.103784 0.749465 0.653858
vn 0.20364 0.713268 0.670656
vn 0.080722 0.246381 0.965806

# bonenergy, 252 grouped triangles

usemtl mhhbonmedikitmat
o bonenergy
g bonenergy

f 54/1/1 84/2/2 113/3/3
f 112/4/4 87/5/5 32/6/6
f 115/7/7 111/8/8 87/9/9
f 113/10/10 84/11/11 116/12/12
f 138/13/13 148/14/14 134/15/15
f 136/16/16 140/17/17 126/18/18
f 137/19/19 147/20/20 133/21/21
f 139/22/22 135/23/23 145/24/24
f 160/25/25 84/26/26 110/27/27
f 36/28/28 106/29/29 31/30/30
f 101/31/31 130/32/32 134/33/33
f 99/34/34 136/35/35 132/36/36
f 135/37/37 139/38/38 128/39/39
f 77/40/40 56/41/41 92/42/42
f 153/43/43 84/44/44 54/45/45
f 134/46/46 125/47/47 138/48/48
f 100/49/49 129/50/50 133/51/51
f 98/52/52 135/53/53 131/54/54
f 97/55/55 22/56/56 103/57/57
f 58/58/58 94/59/59 143/60/60
f 81/61/61 23/62/62 102/63/63
f 144/64/64 95/65/65 59/66/66
f 46/67/67 82/68/68 79/69/69
f 1/70/70 122/71/71 41/72/72
f 35/73/73 107/74/74 13/75/75
f 140/76/76 136/77/77 146/78/78
f 80/79/79 105/80/80 27/81/81
f 151/82/82 157/83/83 59/84/84
f 96/85/85 104/86/86 28/87/87
f 143/88/88 155/89/89 58/90/90
f 141/91/91 61/92/92 49/93/93
f 53/94/94 83/95/95 76/96/96
f 128/97/97 139/98/98 55/99/99
f 2/100/100 89/101/101 12/102/102
f 125/103/103 93/104/104 57/105/105
f 149/106/106 158/107/107 49/108/108
f 78/109/109 57/110/110 93/111/111
f 5/112/112 90/113/113 33/114/114
f 127/115/115 92/116/116 56/117/117
f 133/118/118 127/119/119 137/120/120
f 35/121/121 13/122/122 63/123/123
f 117/124/124 130/125/125 101/126/126
f 36/127/127 31/128/128 66/129/129
f 120/130/130 129/131/131 100/132/132
f 81/133/133 102/134/134 68/135/135
f 129/136/136 120/137/137 7/138/138
f 97/139/139 103/140/140 70/141/141
f 130/142/142 117/143/143 8/144/144
f 39/145/145 64/146/146 14/147/147
f 118/148/148 99/149/149 132/150/150
f 40/151/151 65/152/152 30/153/153
f 119/154/154 98/155/155 131/156/156
f 1/157/157 41/158/158 91/159/159
f 39/160/160 14/161/161 109/162/162
f 4/163/163 42/164/164 88/165/165
f 40/166/166 30/167/167 108/168/168
f 9/169/169 80/170/170 72/171/171
f 97/172/172 21/173/173 73/174/174
f 18/175/175 93/176/176 75/177/177
f 46/178/178 17/179/179 82/180/180
f 81/181/181 10/182/182 74/183/183
f 11/184/184 96/185/185 71/186/186
f 87/187/187 111/188/188 62/189/189
f 49/190/190 159/191/191 141/192/192
f 96/193/193 67/194/194 104/195/195
f 131/196/196 6/197/197 119/198/198
f 80/199/199 69/200/200 105/201/201
f 132/202/202 3/203/203 118/204/204
f 34/205/205 85/206/206 92/207/207
f 53/208/208 15/209/209 83/210/210
f 54/211/211 82/212/212 86/213/213
f 126/214/214 140/215/215 24/216/216
f 76/217/217 83/218/218 55/219/219
f 4/220/220 121/221/221 42/222/222
f 2/223/223 12/224/224 123/225/225
f 127/226/226 56/227/227 137/228/228
f 5/229/229 33/230/230 124/231/231
f 125/232/232 57/233/233 138/234/234
f 115/235/235 87/236/236 112/237/237
f 58/238/238 154/239/239 152/240/240
f 84/241/241 114/242/242 116/243/243
f 59/244/244 156/245/245 144/246/246
f 153/247/247 110/248/248 84/249/249
f 158/250/250 149/251/251 18/252/252
f 128/253/253 55/254/254 83/255/255
f 62/256/256 159/257/257 87/258/258
f 35/259/259 63/260/260 25/261/261
f 39/262/262 26/263/263 64/264/264
f 40/265/265 20/266/266 65/267/267
f 36/268/268 66/269/269 19/270/270
f 6/271/271 50/272/272 67/273/273
f 7/274/274 68/275/275 37/276/276
f 3/277/277 51/278/278 69/279/279
f 8/280/280 70/281/281 38/282/282
f 28/283/283 62/284/284 111/285/285
f 111/286/286 96/287/287 28/288/288
f 27/289/289 54/290/290 113/291/291
f 113/292/292 80/293/293 27/294/294
f 22/295/295 112/296/296 32/297/297
f 112/298/298 22/299/299 97/300/300
f 23/301/301 114/302/302 34/303/303
f 114/304/304 23/305/305 81/306/306
f 32/307/307 87/308/308 158/309/309
f 32/310/310 75/311/311 93/312/312
f 4/313/313 76/314/314 121/315/315
f 2/316/316 123/317/317 77/318/318
f 5/319/319 124/320/320 78/321/321
f 1/322/322 79/323/323 122/324/324
f 43/325/325 80/326/326 9/327/327
f 80/328/328 43/329/329 69/330/330
f 81/331/331 68/332/332 47/333/333
f 47/334/334 10/335/335 81/336/336
f 79/337/337 82/338/338 24/339/339
f 126/340/340 24/341/341 82/342/342
f 83/343/343 15/344/344 29/345/345
f 62/346/346 83/347/347 29/348/348
f 160/349/349 34/350/350 84/351/351
f 34/352/352 114/353/353 84/354/354
f 142/355/355 160/356/356 110/357/357
f 16/358/358 92/359/359 85/360/360
f 17/361/361 150/362/362 153/363/363
f 82/364/364 17/365/365 86/366/366
f 87/367/367 159/368/368 49/369/369
f 87/370/370 49/371/371 158/372/372
f 108/373/373 30/374/374 88/375/375
f 106/376/376 89/377/377 31/378/378
f 107/379/379 90/380/380 13/381/381
f 109/382/382 14/383/383 91/384/384
f 52/385/385 92/386/386 16/387/387
f 52/388/388 77/389/389 92/390/390
f 45/391/391 93/392/392 18/393/393
f 45/394/394 78/395/395 93/396/396
f 21/397/397 152/398/398 154/399/399
f 157/400/400 151/401/401 9/402/402
f 96/403/403 48/404/404 67/405/405
f 48/406/406 96/407/407 11/408/408
f 44/409/409 21/410/410 97/411/411
f 97/412/412 70/413/413 44/414/414
f 145/415/415 135/416/416 98/417/417
f 98/418/418 20/419/419 40/420/420
f 146/421/421 136/422/422 99/423/423
f 99/424/424 26/425/425 39/426/426
f 147/427/427 100/428/428 133/429/429
f 100/430/430 36/431/431 19/432/432
f 148/433/433 101/434/434 134/435/435
f 101/436/436 35/437/437 25/438/438
f 37/439/439 68/440/440 102/441/441
f 102/442/442 133/443/443 37/444/444
f 38/445/445 70/446/446 103/447/447
f 103/448/448 134/449/449 38/450/450
f 67/451/451 50/452/452 104/453/453
f 104/454/454 50/455/455 135/456/456
f 105/457/457 51/458/458 136/459/459
f 69/460/460 51/461/461 105/462/462
f 106/463/463 147/464/464 137/465/465
f 106/466/466 12/467/467 89/468/468
f 107/469/469 148/470/470 138/471/471
f 107/472/472 33/473/473 90/474/474
f 108/475/475 139/476/476 145/477/477
f 108/478/478 88/479/479 42/480/480
f 109/481/481 140/482/482 146/483/483
f 109/484/484 91/485/485 41/486/486
f 110/487/487 153/488/488 150/489/489
f 110/490/490 60/491/491 142/492/492
f 155/493/493 111/494/494 115/495/495
f 71/496/496 96/497/497 111/498/498
f 154/499/499 115/500/500 112/501/501
f 73/502/502 112/503/503 97/504/504
f 116/505/505 157/506/506 113/507/507
f 72/508/508 80/509/509 113/510/510
f 116/511/511 114/512/512 156/513/513
f 74/514/514 114/515/515 81/516/516
f 155/517/517 115/518/518 58/519/519
f 154/520/520 58/521/521 115/522/522
f 116/523/523 156/524/524 59/525/525
f 116/526/526 59/527/527 157/528/528
f 25/529/529 117/530/530 101/531/531
f 26/532/532 99/533/533 118/534/534
f 20/535/535 98/536/536 119/537/537
f 19/538/538 120/539/539 100/540/540
f 121/541/541 76/542/542 55/543/543
f 139/544/544 121/545/545 55/546/546
f 140/547/547 122/548/548 24/549/549
f 122/550/550 79/551/551 24/552/552
f 77/553/553 123/554/554 56/555/555
f 137/556/556 56/557/557 123/558/558
f 78/559/559 124/560/560 57/561/561
f 138/562/562 57/563/563 124/564/564
f 32/565/565 93/566/566 125/567/567
f 22/568/568 32/569/569 125/570/570
f 54/571/571 126/572/572 82/573/573
f 27/574/574 126/575/575 54/576/576
f 34/577/577 92/578/578 127/579/579
f 23/580/580 34/581/581 127/582/582
f 62/583/583 128/584/584 83/585/585
f 28/586/586 128/587/587 62/588/588
f 37/589/589 129/590/590 7/591/591
f 129/592/592 37/593/593 133/594/594
f 38/595/595 130/596/596 8/597/597
f 130/598/598 38/599/599 134/600/600
f 50/601/601 6/602/602 131/603/603
f 131/604/604 135/605/605 50/606/606
f 51/607/607 3/608/608 132/609/609
f 132/610/610 136/611/611 51/612/612
f 133/613/613 23/614/614 127/615/615
f 23/616/616 133/617/617 102/618/618
f 134/619/619 22/620/620 125/621/621
f 22/622/622 134/623/623 103/624/624
f 135/625/625 128/626/626 28/627/627
f 28/628/628 104/629/629 135/630/630
f 136/631/631 126/632/632 27/633/633
f 27/634/634 105/635/635 136/636/636
f 12/637/637 106/638/638 137/639/639
f 123/640/640 12/641/641 137/642/642
f 33/643/643 107/644/644 138/645/645
f 124/646/646 33/647/647 138/648/648
f 42/649/649 139/650/650 108/651/651
f 121/652/652 139/653/653 42/654/654
f 41/655/655 140/656/656 109/657/657
f 122/658/658 140/659/659 41/660/660
f 15/661/661 141/662/662 159/663/663
f 160/664/664 142/665/665 16/666/666
f 155/667/667 143/668/668 11/669/669
f 10/670/670 144/671/671 156/672/672
f 145/673/673 40/674/674 108/675/675
f 145/676/676 98/677/677 40/678/678
f 146/679/679 39/680/680 109/681/681
f 146/682/682 99/683/683 39/684/684
f 147/685/685 106/686/686 36/687/687
f 147/688/688 36/689/689 100/690/690
f 148/691/691 107/692/692 35/693/693
f 148/694/694 35/695/695 101/696/696
f 49/697/697 61/698/698 149/699/699
f 150/700/700 60/701/701 110/702/702
f 59/703/703 95/704/704 151/705/705
f 152/706/706 94/707/707 58/708/708
f 153/709/709 86/710/710 17/711/711
f 153/712/712 54/713/713 86/714/714
f 154/715/715 112/716/716 73/717/717
f 154/718/718 73/719/719 21/720/720
f 155/721/721 71/722/722 111/723/723
f 11/724/724 71/725/725 155/726/726
f 156/727/727 114/728/728 74/729/729
f 156/730/730 74/731/731 10/732/732
f 157/733/733 72/734/734 113/735/735
f 9/736/736 72/737/737 157/738/738
f 32/739/739 158/740/740 75/741/741
f 18/742/742 75/743/743 158/744/744
f 62/745/745 29/746/746 159/747/747
f 159/748/748 29/749/749 15/750/750
f 16/751/751 85/752/752 160/753/753
f 160/754/754 85/755/755 34/756/756
